<svg xmlns="http://www.w3.org/2000/svg" width="1em" height="1em" viewBox="0 0 24 24"><mask id="lineMdSpotifyFilled0"><g fill="none" stroke="#fff" stroke-linecap="round" stroke-linejoin="round" stroke-width="1.5"><path fill="#fff" fill-opacity="0" stroke-dasharray="64" stroke-dashoffset="64" d="M2 12c0 -5.52 4.48 -10 10 -10c5.52 0 10 4.48 10 10c0 5.52 -4.48 10 -10 10c-5.52 0 -10 -4.48 -10 -10Z"><animate fill="freeze" attributeName="fill-opacity" begin="0.78s" dur="0.65s" values="0;1"/><animate fill="freeze" attributeName="stroke-dashoffset" dur="0.78s" values="64;0"/></path><path stroke="#000" stroke-dasharray="8" stroke-dashoffset="8" d="M8.63 15.31c2.18 -0.58 4.49 -0.34 6.5 0.69"><animate fill="freeze" attributeName="stroke-dashoffset" begin="1.43s" dur="0.26s" values="8;0"/></path><path stroke="#000" stroke-dasharray="12" stroke-dashoffset="12" d="M7.5 12.07c1.1 -0.37 2.28 -0.57 3.5 -0.57c2.02 0 3.92 0.55 5.55 1.5"><animate fill="freeze" attributeName="stroke-dashoffset" begin="1.69s" dur="0.26s" values="12;0"/></path><path stroke="#000" stroke-dasharray="14" stroke-dashoffset="14" d="M7 8.91c1.38 -0.59 2.9 -0.91 4.5 -0.91c2.41 0 4.65 0.74 6.5 2"><animate fill="freeze" attributeName="stroke-dashoffset" begin="1.95s" dur="0.26s" values="14;0"/></path></g></mask><rect width="24" height="24" fill="#1ed760" mask="url(#lineMdSpotifyFilled0)"/></svg>